# xmcd CD database file
#
# Track frame offsets:
#	150
#	18441
#	38619
#	55839
#	76389
#	91379
#	118421
#	138281
#	161910
#	184454
#	201584
#	219587
#	235540
#	257938
#	275853
#	298992
#
# Disc length: 4184 seconds
#
# Revision: 0
# Processed by: cddbd v1.5.2PL0 Copyright (c) Steve Scherf et al.
# Submitted via: CDex 1.70beta2
#
DISCID=fd105610
DTITLE=Etta James - Heart and Soul A Retrospective disc4
DYEAR=2011
DGENRE=Blues
TTITLE0=What's Wrong
TTITLE1=I've Got Dreams To Remember
TTITLE2=Whatever Get You Through The Night
TTITLE3=Out Of The Rain
TTITLE4=A Lover Is Forever
TTITLE5=There's Something On Your Mind
TTITLE6=The Man I Love
TTITLE7=Don't Explain
TTITLE8=Don't Go To Strangers
TTITLE9=If I had Any Pride Left At All
TTITLE10=Love Letters
TTITLE11=The Blues Is My Business
TTITLE12=On The 7th Day
TTITLE13=The Sky Is Crying
TTITLE14=I Believe I Can Fly
TTITLE15=Ashes By Now
EXTD=YEAR: 2011
EXTT0=
EXTT1=
EXTT2=
EXTT3=
EXTT4=
EXTT5=
EXTT6=
EXTT7=
EXTT8=
EXTT9=
EXTT10=
EXTT11=
EXTT12=
EXTT13=
EXTT14=
EXTT15=
PLAYORDER=
